<mxfile host="app.diagrams.net" modified="2024-07-16T09:21:32.015Z" agent="Mozilla/5.0 (Windows NT 10.0; Win64; x64) AppleWebKit/537.36 (KHTML, like Gecko) Chrome/126.0.0.0 Safari/537.36" etag="L1xDo4lxRJo_p2WD4USI" version="24.6.5" type="github">
  <diagram name="第 1 页" id="7brIeDJ-BhVTaCaQaYBJ">
    <mxGraphModel dx="910" dy="466" grid="1" gridSize="10" guides="1" tooltips="1" connect="1" arrows="1" fold="1" page="1" pageScale="1" pageWidth="3300" pageHeight="4681" math="0" shadow="0">
      <root>
        <mxCell id="0" />
        <mxCell id="1" parent="0" />
        <mxCell id="_y7rku0oLyoVn4fJ367Y-1" value="N点累加平均" style="rounded=0;whiteSpace=wrap;html=1;fontFamily=Times New Roman;fontSize=18;" vertex="1" parent="1">
          <mxGeometry x="400" y="110" width="160" height="70" as="geometry" />
        </mxCell>
        <mxCell id="_y7rku0oLyoVn4fJ367Y-5" style="edgeStyle=orthogonalEdgeStyle;rounded=0;orthogonalLoop=1;jettySize=auto;html=1;entryX=0;entryY=0.5;entryDx=0;entryDy=0;" edge="1" parent="1" source="_y7rku0oLyoVn4fJ367Y-3" target="_y7rku0oLyoVn4fJ367Y-1">
          <mxGeometry relative="1" as="geometry" />
        </mxCell>
        <mxCell id="_y7rku0oLyoVn4fJ367Y-8" style="edgeStyle=orthogonalEdgeStyle;rounded=0;orthogonalLoop=1;jettySize=auto;html=1;endArrow=none;endFill=0;" edge="1" parent="1" source="_y7rku0oLyoVn4fJ367Y-3">
          <mxGeometry relative="1" as="geometry">
            <mxPoint x="130" y="260" as="targetPoint" />
          </mxGeometry>
        </mxCell>
        <mxCell id="_y7rku0oLyoVn4fJ367Y-3" value="Sub-ADC &lt;sub&gt;i&lt;/sub&gt;" style="rounded=0;whiteSpace=wrap;html=1;fontFamily=Times New Roman;fontStyle=2;fontSize=19;" vertex="1" parent="1">
          <mxGeometry x="200" y="230" width="120" height="60" as="geometry" />
        </mxCell>
        <mxCell id="_y7rku0oLyoVn4fJ367Y-11" style="edgeStyle=orthogonalEdgeStyle;rounded=0;orthogonalLoop=1;jettySize=auto;html=1;" edge="1" parent="1" source="_y7rku0oLyoVn4fJ367Y-4">
          <mxGeometry relative="1" as="geometry">
            <mxPoint x="820" y="210" as="targetPoint" />
          </mxGeometry>
        </mxCell>
        <mxCell id="_y7rku0oLyoVn4fJ367Y-4" value="" style="pointerEvents=1;verticalLabelPosition=bottom;shadow=0;dashed=0;align=center;html=1;verticalAlign=top;shape=mxgraph.electrical.signal_sources.source;aspect=fixed;points=[[0.5,0,0],[1,0.5,0],[0.5,1,0],[0,0.5,0]];elSignalType=dc3;flipV=1;" vertex="1" parent="1">
          <mxGeometry x="670" y="180" width="60" height="60" as="geometry" />
        </mxCell>
        <mxCell id="_y7rku0oLyoVn4fJ367Y-6" style="edgeStyle=orthogonalEdgeStyle;rounded=0;orthogonalLoop=1;jettySize=auto;html=1;entryX=0.5;entryY=0;entryDx=0;entryDy=0;entryPerimeter=0;" edge="1" parent="1" source="_y7rku0oLyoVn4fJ367Y-3" target="_y7rku0oLyoVn4fJ367Y-4">
          <mxGeometry relative="1" as="geometry" />
        </mxCell>
        <mxCell id="_y7rku0oLyoVn4fJ367Y-7" style="edgeStyle=orthogonalEdgeStyle;rounded=0;orthogonalLoop=1;jettySize=auto;html=1;entryX=0.5;entryY=1;entryDx=0;entryDy=0;entryPerimeter=0;" edge="1" parent="1" source="_y7rku0oLyoVn4fJ367Y-1" target="_y7rku0oLyoVn4fJ367Y-4">
          <mxGeometry relative="1" as="geometry" />
        </mxCell>
        <mxCell id="_y7rku0oLyoVn4fJ367Y-9" value="x(t)" style="text;html=1;align=center;verticalAlign=middle;whiteSpace=wrap;rounded=0;fontFamily=Times New Roman;fontStyle=2;fontSize=16;" vertex="1" parent="1">
          <mxGeometry x="130" y="230" width="60" height="30" as="geometry" />
        </mxCell>
        <mxCell id="_y7rku0oLyoVn4fJ367Y-10" value="os&lt;sub style=&quot;font-size: 14px;&quot;&gt;i&lt;/sub&gt;" style="text;html=1;align=center;verticalAlign=middle;whiteSpace=wrap;rounded=0;fontStyle=2;fontFamily=Times New Roman;fontSize=14;" vertex="1" parent="1">
          <mxGeometry x="690" y="150" width="60" height="30" as="geometry" />
        </mxCell>
      </root>
    </mxGraphModel>
  </diagram>
</mxfile>
